<svg xmlns="http://www.w3.org/2000/svg" width="24" height="24" viewBox="0 0 24 24" fill="none" stroke="#FFFFFF" stroke-width="1.75" stroke-linecap="round" stroke-linejoin="round">
  <path d="M4 4m0 1a1 1 0 0 1 1 -1h4a1 1 0 0 1 1 1v4a1 1 0 0 1 -1 1h-4a1 1 0 0 1 -1 -1z"/>
  <path d="M14 4m0 1a1 1 0 0 1 1 -1h4a1 1 0 0 1 1 1v4a1 1 0 0 1 -1 1h-4a1 1 0 0 1 -1 -1z"/>
  <path d="M4 14m0 1a1 1 0 0 1 1 -1h4a1 1 0 0 1 1 1v4a1 1 0 0 1 -1 1h-4a1 1 0 0 1 -1 -1z"/>
  <path d="M14 14m0 1a1 1 0 0 1 1 -1h4a1 1 0 0 1 1 1v4a1 1 0 0 1 -1 1h-4a1 1 0 0 1 -1 -1z"/>
  <path d="M16 16l1.5 1.5l3 -3"/>
  <path d="M18.5 5.5m-.75 0a.75 .75 0 1 0 1.5 0a.75 .75 0 1 0 -1.5 0"/>
  <path d="M20.5 7.5m-.75 0a.75 .75 0 1 0 1.5 0a.75 .75 0 1 0 -1.5 0"/>
  <path d="M18.5 9.5m-.75 0a.75 .75 0 1 0 1.5 0a.75 .75 0 1 0 -1.5 0"/>
</svg>
